<svg width="663" height="662" viewBox="0 0 663 662" fill="none" xmlns="http://www.w3.org/2000/svg">
<g opacity="0.5">
<path d="M166.055 515.354C257.43 558.834 405.57 558.847 496.945 515.354C588.32 471.86 588.306 401.371 496.945 357.89C405.584 314.41 257.43 314.41 166.055 357.89C74.6803 401.371 74.6936 471.874 166.055 515.354Z" fill="#F5F5F5"/>
<path d="M496.627 483.22C513.456 483.22 527.098 476.729 527.098 468.722C527.098 460.716 513.456 454.225 496.627 454.225C479.798 454.225 466.155 460.716 466.155 468.722C466.155 476.729 479.798 483.22 496.627 483.22Z" fill="#EBEBEB"/>
<path d="M159.12 470.801L169.9 464.592C175.919 459.687 180.501 453.251 183.16 445.963C186.489 436.801 186.025 429.837 183.638 426.341C180.707 422.038 173.109 422.793 172.804 431.849C172.168 449.697 166.957 462.076 159.12 470.801Z" fill="#BA68C8"/>
<path opacity="0.2" d="M159.12 470.801L169.9 464.592C175.919 459.687 180.501 453.251 183.16 445.963C186.489 436.801 186.025 429.837 183.638 426.341C180.707 422.038 173.109 422.793 172.804 431.849C172.168 449.697 166.957 462.076 159.12 470.801Z" fill="black"/>
<path d="M159.12 471.463C158.98 471.461 158.843 471.415 158.731 471.331C158.619 471.247 158.536 471.13 158.494 470.996C158.453 470.862 158.455 470.718 158.501 470.586C158.547 470.453 158.634 470.339 158.749 470.258C183.677 453.046 178.851 429.042 178.798 428.804C178.78 428.717 178.779 428.627 178.795 428.54C178.811 428.453 178.845 428.369 178.894 428.295C178.942 428.221 179.005 428.157 179.078 428.106C179.152 428.056 179.235 428.021 179.322 428.003C179.409 427.985 179.498 427.984 179.586 428C179.673 428.016 179.757 428.05 179.831 428.098C179.906 428.147 179.97 428.21 180.02 428.283C180.07 428.356 180.106 428.439 180.124 428.526C180.124 428.777 185.216 453.602 159.544 471.344C159.42 471.429 159.271 471.471 159.12 471.463Z" fill="white"/>
<path d="M137.519 483.26C137.519 483.26 133.767 480.215 134.669 476.084C135.57 471.953 137.997 468.987 133.846 463.665C129.696 458.342 128.542 451.246 133.502 447.406C137.281 444.427 143.181 448.637 145.303 440.786C146.868 435.04 146.337 422.316 153.67 418.079C161.003 413.843 165.604 420.224 164.45 428.857C163.443 436.576 162.011 444.003 163.124 446.069C165.273 450.041 168.946 449.498 168.773 456.754C168.627 463.506 162.223 469.093 162.223 469.093L137.519 483.26Z" fill="#BA68C8"/>
<path d="M149.838 476.786C149.676 476.784 149.52 476.724 149.398 476.617C149.276 476.51 149.197 476.363 149.175 476.203C147.279 460.514 151.827 433.425 155.54 425.375C155.571 425.285 155.621 425.204 155.687 425.135C155.752 425.067 155.831 425.014 155.919 424.978C156.007 424.943 156.102 424.927 156.196 424.932C156.291 424.936 156.384 424.961 156.468 425.004C156.547 425.04 156.618 425.091 156.677 425.154C156.736 425.218 156.782 425.292 156.812 425.374C156.842 425.455 156.855 425.542 156.85 425.628C156.846 425.715 156.824 425.8 156.786 425.878C153.113 433.822 148.724 460.99 150.541 475.991C150.559 476.165 150.509 476.339 150.399 476.475C150.29 476.612 150.131 476.699 149.957 476.719L149.838 476.786Z" fill="white"/>
<path d="M149.48 464.565C149.379 464.57 149.278 464.547 149.188 464.499C144.587 462.261 141.67 454.278 141.55 453.907C141.518 453.825 141.502 453.737 141.505 453.648C141.507 453.56 141.527 453.472 141.563 453.392C141.6 453.311 141.652 453.239 141.717 453.178C141.782 453.118 141.858 453.072 141.942 453.042C142.025 453.012 142.114 452.998 142.202 453.003C142.291 453.008 142.377 453.03 142.457 453.069C142.537 453.108 142.608 453.162 142.666 453.228C142.725 453.295 142.769 453.373 142.797 453.457C142.797 453.536 145.648 461.268 149.772 463.268C149.907 463.333 150.016 463.442 150.081 463.578C150.146 463.713 150.163 463.867 150.129 464.013C150.095 464.159 150.012 464.289 149.894 464.383C149.776 464.476 149.63 464.526 149.48 464.525V464.565Z" fill="white"/>
<path d="M149.4 469.861C149.268 469.861 149.138 469.821 149.029 469.745C148.92 469.669 148.837 469.562 148.79 469.437C148.724 469.276 148.725 469.095 148.792 468.934C148.859 468.772 148.987 468.644 149.148 468.577C156.892 465.479 161.719 456.277 161.772 456.171C161.853 456.015 161.993 455.897 162.16 455.844C162.328 455.79 162.511 455.806 162.667 455.886C162.824 455.967 162.942 456.107 162.995 456.274C163.048 456.442 163.033 456.624 162.952 456.78C162.74 457.177 157.847 466.525 149.692 469.808C149.601 469.851 149.501 469.869 149.4 469.861Z" fill="white"/>
<path d="M420.077 398.63C420.077 398.63 414.282 389.256 413.712 379.074C413.142 368.893 415.383 364.656 418.459 363.438C421.535 362.22 421.774 365.967 423.352 368.178C424.93 370.389 428.152 369.131 429.346 362.233C430.539 355.335 434.888 343.697 443.932 341.433C453.877 338.97 448.546 350.622 446.04 355.163C443.534 359.704 441.598 365.901 443.242 367.582C444.886 369.264 447.445 366.152 449.872 369.039C452.829 372.521 443.64 385.059 438.362 388.091L420.077 398.63Z" fill="#BA68C8"/>
<path d="M428.02 394.698C427.932 394.694 427.847 394.674 427.768 394.637C427.689 394.601 427.617 394.549 427.558 394.485C427.499 394.421 427.453 394.346 427.423 394.265C427.393 394.183 427.38 394.096 427.383 394.009C428.281 377.631 433.396 361.761 442.234 347.934C442.284 347.862 442.348 347.801 442.423 347.754C442.497 347.708 442.58 347.677 442.667 347.663C442.754 347.649 442.843 347.653 442.928 347.675C443.013 347.697 443.093 347.735 443.162 347.788C443.301 347.891 443.394 348.045 443.422 348.215C443.449 348.386 443.408 348.561 443.308 348.702C434.628 362.326 429.605 377.952 428.722 394.075C428.717 394.162 428.695 394.247 428.657 394.326C428.619 394.404 428.566 394.474 428.5 394.532C428.435 394.59 428.359 394.634 428.276 394.663C428.194 394.691 428.107 394.703 428.02 394.698Z" fill="white"/>
<path d="M428.775 386.873C428.664 386.872 428.555 386.845 428.457 386.793C424.744 384.741 422.689 378.651 422.609 378.399C422.58 378.317 422.568 378.229 422.572 378.142C422.577 378.054 422.6 377.969 422.638 377.89C422.676 377.811 422.73 377.741 422.795 377.683C422.861 377.625 422.937 377.58 423.02 377.552C423.188 377.498 423.369 377.512 423.526 377.591C423.683 377.671 423.801 377.809 423.856 377.976C423.856 377.976 425.845 383.841 429.16 385.628C429.31 385.717 429.42 385.86 429.467 386.028C429.514 386.196 429.494 386.375 429.412 386.529C429.352 386.642 429.259 386.736 429.146 386.797C429.033 386.859 428.904 386.885 428.775 386.873Z" fill="white"/>
<path d="M429.425 382.861C429.278 382.86 429.136 382.809 429.021 382.718C428.906 382.627 428.824 382.5 428.789 382.358C428.767 382.275 428.762 382.188 428.774 382.102C428.787 382.017 428.816 381.935 428.86 381.861C428.905 381.787 428.963 381.722 429.033 381.671C429.103 381.62 429.182 381.584 429.266 381.564C438.84 379.141 442.155 374.136 442.181 374.083C442.228 374.009 442.289 373.945 442.361 373.895C442.433 373.845 442.514 373.809 442.599 373.79C442.685 373.771 442.774 373.769 442.86 373.784C442.946 373.799 443.029 373.831 443.103 373.878C443.177 373.925 443.241 373.986 443.291 374.057C443.342 374.129 443.377 374.21 443.396 374.295C443.416 374.381 443.418 374.469 443.402 374.555C443.387 374.642 443.355 374.724 443.308 374.798C443.162 375.023 439.715 380.279 429.597 382.848L429.425 382.861Z" fill="white"/>
<path d="M275.808 378.055C275.808 378.055 263.092 374.957 262.429 351.178C261.726 325.519 265.545 295.57 250.495 293.147C235.445 290.724 227.091 309.035 227.276 330.417C227.449 349.139 235.007 389.786 275.755 397.756L275.808 378.055Z" fill="#BA68C8"/>
<path opacity="0.2" d="M275.808 378.055C275.808 378.055 263.092 374.957 262.429 351.178C261.726 325.519 265.545 295.57 250.495 293.147C235.445 290.724 227.091 309.035 227.276 330.417C227.449 349.139 235.007 389.786 275.755 397.756L275.808 378.055Z" fill="black"/>
<path d="M275.808 395.32H275.689C266.526 393.652 259.061 388.607 253.505 380.345C237.036 355.812 242.22 310.001 243.931 302.004C243.969 301.834 244.072 301.685 244.218 301.589C244.364 301.493 244.541 301.456 244.713 301.488C244.885 301.529 245.034 301.634 245.13 301.782C245.227 301.93 245.262 302.109 245.23 302.282C243.546 310.226 238.388 355.454 254.605 379.604C256.966 383.349 260.08 386.564 263.751 389.043C267.421 391.523 271.568 393.214 275.927 394.009C276.014 394.025 276.096 394.058 276.17 394.106C276.244 394.154 276.307 394.216 276.356 394.289C276.406 394.361 276.44 394.443 276.458 394.529C276.475 394.615 276.475 394.704 276.458 394.79C276.43 394.941 276.349 395.077 276.23 395.174C276.111 395.271 275.961 395.322 275.808 395.32Z" fill="white"/>
<path d="M275.808 456.343C262.667 458.117 241.332 458.091 229.013 448.399C216.695 438.707 219.267 430.366 224.001 426.884C228.735 423.402 232.846 419.43 224.704 411.698C216.562 403.966 203.488 391.547 199.245 372.918C195.002 354.289 197.097 342.638 205.424 338.759C213.499 334.998 215.634 340.983 220.58 353.323C225.526 365.662 236.651 355.084 246.172 358.936C255.693 362.789 255.308 370.415 255.905 376.969C256.501 383.523 259.644 385.337 265.041 385.337C270.438 385.337 275.808 388.435 275.808 394.605V456.343Z" fill="#BA68C8"/>
<path d="M275.808 434.709C275.751 434.721 275.692 434.721 275.636 434.709C275.065 434.55 261.474 430.604 241.677 412.452C220.593 393.122 210.648 364.126 210.542 363.835C210.491 363.668 210.507 363.488 210.586 363.333C210.665 363.177 210.802 363.059 210.967 363.001C211.132 362.946 211.312 362.958 211.469 363.035C211.625 363.112 211.745 363.247 211.802 363.412C211.895 363.703 221.747 392.381 242.578 411.473C262.097 429.386 275.848 433.398 275.994 433.438C276.077 433.462 276.155 433.503 276.223 433.557C276.291 433.612 276.347 433.679 276.389 433.755C276.431 433.831 276.458 433.915 276.467 434.001C276.477 434.088 276.469 434.175 276.444 434.259C276.401 434.392 276.316 434.509 276.201 434.59C276.087 434.671 275.949 434.713 275.808 434.709Z" fill="white"/>
<path d="M247.206 417.06C247.073 417.062 246.942 417.022 246.833 416.946C246.723 416.87 246.641 416.762 246.596 416.636C242.34 405.727 241.372 382.384 241.292 381.391C241.288 381.217 241.353 381.047 241.471 380.919C241.59 380.791 241.754 380.713 241.929 380.703C242.102 380.705 242.268 380.772 242.395 380.889C242.522 381.006 242.602 381.166 242.618 381.338C242.618 381.577 243.613 405.449 247.79 416.16C247.822 416.241 247.837 416.329 247.835 416.416C247.833 416.504 247.813 416.59 247.777 416.67C247.742 416.75 247.69 416.823 247.626 416.883C247.563 416.943 247.487 416.989 247.405 417.02C247.341 417.043 247.274 417.057 247.206 417.06Z" fill="white"/>
<path d="M247.1 432.749C245.878 432.759 244.656 432.697 243.44 432.564C243.353 432.554 243.269 432.526 243.193 432.483C243.116 432.44 243.049 432.383 242.995 432.314C242.941 432.245 242.901 432.166 242.877 432.082C242.853 431.998 242.846 431.91 242.857 431.823C242.867 431.736 242.895 431.652 242.938 431.575C242.981 431.499 243.038 431.432 243.107 431.378C243.176 431.324 243.255 431.284 243.34 431.26C243.424 431.236 243.512 431.23 243.599 431.24C243.719 431.24 256.064 432.644 261.726 426.884C261.785 426.814 261.858 426.758 261.94 426.717C262.021 426.677 262.111 426.654 262.202 426.65C262.293 426.646 262.385 426.661 262.47 426.693C262.555 426.726 262.633 426.776 262.698 426.84C262.763 426.904 262.814 426.981 262.848 427.065C262.882 427.15 262.898 427.241 262.895 427.332C262.892 427.423 262.87 427.513 262.831 427.595C262.792 427.678 262.736 427.751 262.667 427.811C258.57 432.034 251.423 432.749 247.1 432.749Z" fill="white"/>
<path d="M237.553 182.037L236.121 173.788L228.748 178.634C228.075 177.31 227.12 176.149 225.95 175.231L229.478 165.699L222.848 164.229L217.994 173.497C216.239 173.793 214.536 174.346 212.942 175.139L210.834 168.148L202.958 174.331L203.475 182.54C201.871 184.334 200.416 186.256 199.125 188.286L192.628 187.955L188.067 198.163L193.649 200.546C193.066 202.658 192.698 204.822 192.548 207.007L185.454 213.521L186.873 221.783L194.259 216.937C194.929 218.26 195.884 219.418 197.057 220.327L193.596 229.873L200.226 231.329L207.174 224.577C208.779 224.325 208.381 221.307 210.131 220.446L212.24 227.41L220.103 221.24L219.904 218.01C221.495 216.236 227.515 212.33 228.815 210.291L230.446 207.643L235.007 197.435L232.885 193.595L230.525 188.591L237.553 182.037ZM213.486 209.192C207.439 213.932 205.53 214.978 204.509 208.636C203.488 202.294 206.949 192.655 212.995 187.902C219.042 183.149 221.349 182.818 222.436 189.147C223.524 195.475 219.546 204.505 213.486 209.192Z" fill="#E0E0E0"/>
<path d="M222.901 164.229L231.506 169.181L226.653 178.422L218.047 173.47L222.901 164.229Z" fill="#F5F5F5"/>
<path d="M244.727 178.74L237.354 183.586L228.748 178.634L236.121 173.788L244.727 178.74Z" fill="#F5F5F5"/>
<path d="M243.546 202.347L237.964 199.977L229.358 195.025L234.941 197.395L243.546 202.347Z" fill="#E0E0E0"/>
<path d="M193.583 229.873L202.188 234.811L205.716 225.279L197.11 220.327L193.583 229.873Z" fill="#E0E0E0"/>
<path d="M220.766 232.362L212.173 227.41L210.065 220.446L218.671 225.398L220.766 232.362Z" fill="#E0E0E0"/>
<path d="M246.145 186.989L244.727 178.74L237.354 183.586C236.675 182.261 235.716 181.1 234.543 180.183L238.07 170.65L231.506 169.181L226.64 178.449C224.884 178.744 223.182 179.298 221.588 180.09L219.493 173.126L211.616 179.309L212.133 187.518C210.528 189.325 209.073 191.26 207.784 193.304L201.274 192.973L196.712 203.181L202.295 205.564C201.717 207.681 201.348 209.85 201.194 212.039L194.113 218.46L195.532 226.722L202.905 221.876C203.583 223.197 204.543 224.353 205.716 225.265L202.188 234.798L208.818 236.268L213.672 227C215.434 226.707 217.142 226.149 218.737 225.345L220.832 232.309L228.708 226.139L228.191 217.93C229.795 216.136 231.25 214.215 232.541 212.184L239.051 212.502L243.613 202.294L237.951 199.924C238.538 197.808 238.911 195.64 239.065 193.45L246.145 186.989ZM222.105 214.197C216.072 218.937 210.29 217.652 209.19 211.324C208.089 204.995 212.107 196.005 218.154 191.265C224.2 186.525 229.968 187.823 231.069 194.151C232.169 200.48 228.152 209.457 222.105 214.197Z" fill="#EBEBEB"/>
<path d="M219.493 173.1L210.887 168.148L203.011 174.331L211.616 179.283L219.493 173.1Z" fill="#F5F5F5"/>
<path d="M203.011 174.331L203.528 182.54L212.133 187.492L211.616 179.283L203.011 174.331Z" fill="#E0E0E0"/>
<path d="M207.784 193.238L199.178 188.286L192.681 187.968L201.274 192.92L207.784 193.238Z" fill="#F5F5F5"/>
<path d="M192.681 187.968L188.12 198.163L196.712 203.115L201.274 192.92L192.681 187.968Z" fill="#E0E0E0"/>
<path d="M201.194 211.959L192.601 207.007L185.507 213.521L194.1 218.473L201.194 211.959Z" fill="#F5F5F5"/>
<path d="M195.532 226.735L186.926 221.783L185.507 213.521L194.1 218.473L195.532 226.735Z" fill="#E0E0E0"/>
<path d="M231.506 169.181L222.901 164.229L229.478 165.699L238.07 170.65L231.506 169.181Z" fill="#F5F5F5"/>
<path d="M199.019 144.594V132.268L189.194 136.69C188.673 134.598 187.774 132.62 186.542 130.851L192.734 118.392L185.176 114.036L177.459 125.621C175.308 125.434 173.141 125.644 171.067 126.243L169.98 115.532L159.292 121.702L158.218 133.618C155.892 135.676 153.754 137.936 151.827 140.37L144.11 137.722L136.551 150.804L142.731 156.1C141.589 158.983 140.702 161.96 140.079 164.997L130.253 171.895V184.235L140.079 179.812C140.599 181.904 141.498 183.883 142.731 185.651L136.578 198.123L144.136 202.479L151.854 190.894C154.004 191.081 156.171 190.87 158.245 190.272L159.319 200.983L170.006 194.813L171.094 182.897C174.43 181.682 177.385 179.608 179.66 176.886L185.202 178.833L192.761 165.765L188.12 161.793C189.127 158.481 189.5 155.009 189.22 151.558L199.019 144.594ZM164.636 175.39C156.441 180.117 151.376 176.714 151.376 167.301C151.376 157.887 158.152 146.249 166.36 141.522C174.568 136.796 179.527 140.198 179.527 149.691C179.527 159.185 172.844 170.65 164.636 175.39Z" fill="#E0E0E0"/>
<path d="M193.768 118.975L185.176 114.036L177.459 125.621L186.051 130.573L193.768 118.975Z" fill="#F5F5F5"/>
<path d="M207.625 137.219L199.019 132.268L189.194 136.69L197.799 141.642L207.625 137.219Z" fill="#F5F5F5"/>
<path d="M167.885 205.935L159.292 200.983L158.218 190.272L166.811 195.224L167.885 205.935Z" fill="#E0E0E0"/>
<path d="M136.538 198.123L145.144 203.075L151.336 190.616L142.731 185.665L136.538 198.123Z" fill="#E0E0E0"/>
<path d="M207.625 149.612V137.286L197.799 141.668C197.284 139.575 196.385 137.595 195.147 135.829L201.34 123.37L193.782 119.001L186.064 130.599C183.914 130.405 181.746 130.616 179.673 131.222L178.586 120.484L167.898 126.654L166.811 138.57C164.488 140.631 162.35 142.891 160.419 145.322L152.702 142.674L145.144 155.755L151.336 161.051C150.189 163.932 149.301 166.91 148.684 169.949L138.859 176.847V189.186L148.684 184.764C149.199 186.858 150.098 188.837 151.336 190.603L145.144 203.062L152.702 207.418L160.419 195.833C162.57 196.02 164.737 195.809 166.811 195.211L167.898 205.922L178.586 199.752L179.66 187.836C181.986 185.778 184.124 183.518 186.051 181.083L193.768 183.731L201.327 170.664L195.134 165.368C196.282 162.487 197.169 159.509 197.786 156.47L207.625 149.612ZM173.242 180.408C165.034 185.135 158.377 181.295 158.377 171.842C158.377 162.389 165.007 150.883 173.242 146.143C181.476 141.403 188.093 145.256 188.093 154.709C188.093 164.163 181.437 175.602 173.242 180.342V180.408Z" fill="#EBEBEB"/>
<path d="M151.827 140.397L160.419 145.349L152.702 142.661L144.11 137.696L151.827 140.397Z" fill="#F0F0F0"/>
<path d="M144.109 137.71L136.549 150.795L145.151 155.75L152.712 142.665L144.109 137.71Z" fill="#F5F5F5"/>
<path d="M136.538 150.777L145.144 155.729L151.336 161.051L142.731 156.113L136.538 150.777Z" fill="#E0E0E0"/>
<path d="M140.079 165.01L148.684 169.962L138.859 176.86L130.253 171.908L140.079 165.01Z" fill="#F5F5F5"/>
<path d="M130.253 171.908L138.859 176.86V189.2L130.253 184.248V171.908Z" fill="#E0E0E0"/>
<path d="M178.586 120.484L169.98 115.532L159.292 121.702L167.885 126.654L178.586 120.484Z" fill="#F5F5F5"/>
<path d="M288.909 474.058L413.553 402.191C413.827 402.095 414.065 401.916 414.234 401.679C414.402 401.442 414.492 401.158 414.492 400.867C414.492 400.577 414.402 400.293 414.234 400.056C414.065 399.819 413.827 399.64 413.553 399.543L402.03 392.923C401.316 392.565 400.528 392.378 399.729 392.378C398.93 392.378 398.142 392.565 397.429 392.923L272.745 464.724C272.47 464.82 272.232 465 272.064 465.237C271.896 465.474 271.806 465.757 271.806 466.048C271.806 466.339 271.896 466.622 272.064 466.859C272.232 467.096 272.47 467.276 272.745 467.372L284.308 473.992C285.016 474.361 285.801 474.559 286.6 474.571C287.399 474.582 288.19 474.407 288.909 474.058Z" fill="#E0E0E0"/>
<path d="M410.132 124.721L297.74 189.517C296.069 190.606 294.679 192.072 293.681 193.798C292.684 195.523 292.107 197.458 291.998 199.447V465.664C291.998 469.318 294.571 470.801 297.74 468.974L410.132 404.177C411.805 403.091 413.197 401.625 414.195 399.9C415.192 398.174 415.768 396.237 415.873 394.247V128.031C415.873 124.377 413.314 122.894 410.132 124.721Z" fill="#455A64"/>
<path d="M297.74 189.517L410.132 124.721C412.969 123.079 415.316 124.099 415.794 126.945C415.529 125.155 414.887 123.442 413.911 121.918C412.935 120.393 411.647 119.092 410.132 118.101L405.464 115.453C403.685 114.551 401.718 114.082 399.723 114.082C397.728 114.082 395.76 114.551 393.981 115.453L281.576 180.196C279.883 181.256 278.487 182.728 277.519 184.473L293.682 193.741C294.651 192.01 296.048 190.555 297.74 189.517Z" fill="#37474F"/>
<path d="M275.808 456.343C275.917 458.332 276.493 460.268 277.491 461.993C278.488 463.718 279.879 465.184 281.55 466.273L286.23 468.921C287.85 469.73 289.623 470.189 291.433 470.266C293.243 470.344 295.049 470.039 296.732 469.371C294.08 470.404 291.972 468.881 291.972 465.611V199.447C292.038 197.45 292.618 195.503 293.656 193.794L277.492 184.526C276.469 186.222 275.89 188.148 275.808 190.126V456.343Z" fill="#263238"/>
<path d="M300.83 224.987L407.082 163.752C408.991 162.667 410.53 163.554 410.53 165.738V362.776C410.466 363.97 410.12 365.132 409.521 366.168C408.922 367.203 408.086 368.082 407.082 368.734L300.869 429.969C298.96 431.068 297.422 430.181 297.422 427.983V230.945C297.482 229.755 297.822 228.595 298.414 227.56C299.006 226.525 299.833 225.644 300.83 224.987Z" fill="white"/>
<path d="M353.936 167.208C353.349 167.592 352.862 168.109 352.511 168.716C352.161 169.323 351.959 170.004 351.92 170.703C351.92 172.027 352.822 172.517 353.936 171.868C354.525 171.486 355.014 170.97 355.365 170.363C355.715 169.755 355.916 169.073 355.951 168.373C355.951 167.089 355.05 166.572 353.936 167.208Z" fill="#37474F"/>
<path d="M353.936 408.772C351.618 410.286 349.69 412.324 348.307 414.721C346.925 417.118 346.128 419.806 345.98 422.568C345.98 427.639 349.547 429.704 353.936 427.162C356.253 425.647 358.181 423.609 359.563 421.212C360.945 418.816 361.743 416.128 361.892 413.366C361.918 408.295 358.338 406.23 353.936 408.772Z" fill="#37474F"/>
<path d="M334.855 187.703C333.689 188.476 332.722 189.511 332.031 190.725C331.34 191.94 330.945 193.299 330.877 194.694C330.877 197.263 332.68 198.309 334.855 197.024C336.032 196.259 337.013 195.227 337.715 194.013C338.418 192.798 338.824 191.435 338.899 190.034C338.899 187.465 337.096 186.419 334.855 187.703Z" fill="#37474F"/>
<path d="M344.76 186.83C344.76 188.551 346.086 189.2 347.637 188.286L374.157 172.967C374.979 172.455 375.668 171.756 376.168 170.928C376.668 170.1 376.965 169.166 377.035 168.201C377.035 166.493 375.709 165.844 374.157 166.758L347.637 182.076C346.818 182.587 346.13 183.284 345.63 184.11C345.13 184.936 344.832 185.867 344.76 186.83Z" fill="#37474F"/>
<path d="M284.772 233.514C285.713 234.126 286.496 234.951 287.058 235.921C287.62 236.892 287.945 237.982 288.007 239.101C288.007 241.167 286.562 242.001 284.772 240.968C283.834 240.354 283.054 239.528 282.494 238.558C281.934 237.587 281.611 236.499 281.55 235.381C281.55 233.329 282.995 232.494 284.772 233.514Z" fill="#37474F"/>
<path d="M284.772 258.379C285.713 258.991 286.496 259.815 287.058 260.786C287.62 261.757 287.945 262.846 288.007 263.966C288.007 266.018 286.562 266.852 284.772 265.833C283.834 265.218 283.054 264.393 282.494 263.422C281.934 262.452 281.611 261.364 281.55 260.245C281.55 258.18 282.995 257.346 284.772 258.379Z" fill="#37474F"/>
<path d="M283.764 234.017C284.705 234.629 285.488 235.454 286.05 236.425C286.613 237.395 286.938 238.485 286.999 239.604C286.999 241.656 285.554 242.491 283.764 241.471C282.823 240.859 282.04 240.034 281.478 239.064C280.915 238.093 280.59 237.003 280.529 235.884C280.542 233.818 281.987 233.024 283.764 234.017Z" fill="#455A64"/>
<path d="M283.764 258.869C284.707 259.482 285.491 260.309 286.053 261.282C286.616 262.255 286.94 263.347 286.999 264.469C286.999 266.521 285.554 267.355 283.764 266.323C282.821 265.713 282.036 264.889 281.473 263.917C280.911 262.946 280.587 261.856 280.529 260.735C280.542 258.683 281.987 257.849 283.764 258.869Z" fill="#455A64"/>
<path d="M432.037 171.974C432.037 169.777 430.499 168.889 428.59 169.988L415.873 177.31L322.377 231.223C321.373 231.875 320.537 232.754 319.938 233.79C319.339 234.825 318.993 235.987 318.93 237.181V434.166C318.93 436.364 320.468 437.251 322.377 436.152L415.913 382.226L428.59 374.917C429.594 374.266 430.43 373.386 431.029 372.351C431.628 371.315 431.974 370.153 432.037 368.959V171.974Z" fill="white"/>
<path d="M433.363 171.974C433.447 171.31 433.332 170.637 433.034 170.037C432.736 169.438 432.268 168.94 431.687 168.605C431.107 168.27 430.441 168.113 429.772 168.154C429.103 168.196 428.461 168.433 427.927 168.836L415.794 175.84L321.714 230.124C320.503 230.888 319.496 231.934 318.78 233.173C318.063 234.411 317.66 235.805 317.603 237.234V434.166C317.55 434.827 317.678 435.49 317.972 436.085C318.266 436.679 318.716 437.183 319.274 437.542C319.749 437.818 320.29 437.96 320.839 437.953C321.616 437.928 322.374 437.705 323.04 437.304L417.186 383.02L429.292 376.042C430.497 375.272 431.499 374.224 432.214 372.987C432.929 371.75 433.337 370.359 433.403 368.933L433.363 171.974ZM415.82 380.756L414.733 381.391L321.767 434.987C321.611 435.107 321.43 435.19 321.237 435.232C321.044 435.273 320.845 435.271 320.653 435.225C320.481 435.119 320.309 434.749 320.309 434.14V237.181C320.377 236.22 320.663 235.287 321.146 234.452C321.628 233.617 322.294 232.903 323.093 232.362L415.966 178.74L429.226 171.074C429.382 170.954 429.563 170.871 429.756 170.829C429.949 170.788 430.148 170.79 430.34 170.836C430.512 170.942 430.685 171.312 430.685 171.921V368.959C430.616 369.92 430.33 370.854 429.847 371.688C429.365 372.523 428.699 373.238 427.9 373.778L415.794 380.756H415.82Z" fill="#BA68C8"/>
<path d="M375.483 217.745C387.417 210.887 397.031 216.421 397.031 230.177C397.031 243.934 387.378 260.629 375.483 267.435C363.589 274.24 353.936 268.759 353.936 255.016C353.936 241.273 363.589 224.617 375.483 217.745Z" fill="#BA68C8"/>
<path d="M375.483 228.549C379.342 226.325 382.471 228.125 382.471 232.521C382.34 234.942 381.639 237.299 380.425 239.399C379.211 241.5 377.518 243.284 375.483 244.609C371.625 246.833 368.495 245.033 368.495 240.637C368.626 238.215 369.328 235.859 370.542 233.759C371.756 231.658 373.449 229.873 375.483 228.549Z" fill="#BA68C8"/>
<path d="M389.101 252.275C389.101 244.966 383.97 242.001 377.618 245.655L373.64 247.945C367.302 251.6 362.157 260.497 362.157 267.805V269.778C365.83 270.983 370.445 270.334 375.417 267.435C380.926 264.042 385.584 259.436 389.035 253.97L389.101 252.275Z" fill="#BA68C8"/>
<path opacity="0.7" d="M375.483 228.549C379.342 226.325 382.471 228.125 382.471 232.521C382.34 234.942 381.639 237.299 380.425 239.399C379.211 241.5 377.518 243.284 375.483 244.609C371.625 246.833 368.495 245.033 368.495 240.637C368.626 238.215 369.328 235.859 370.542 233.759C371.756 231.658 373.449 229.873 375.483 228.549Z" fill="white"/>
<path opacity="0.7" d="M389.101 252.275C389.101 244.966 383.97 242.001 377.618 245.655L373.64 247.945C367.302 251.6 362.157 260.497 362.157 267.805V269.778C365.83 270.983 370.445 270.334 375.417 267.435C380.926 264.042 385.584 259.436 389.035 253.97L389.101 252.275Z" fill="white"/>
<path d="M333.794 297.688L361.521 281.707C362.847 280.979 363.815 281.562 363.815 283.031V283.945C363.773 284.741 363.543 285.515 363.144 286.206C362.746 286.896 362.189 287.482 361.521 287.917L333.794 303.898C332.534 304.626 331.5 304.03 331.5 302.574V301.66C331.543 300.865 331.773 300.091 332.172 299.401C332.57 298.71 333.126 298.124 333.794 297.688Z" fill="#BA68C8"/>
<path opacity="0.1" d="M333.794 297.688L361.521 281.707C362.847 280.979 363.815 281.562 363.815 283.031V283.945C363.773 284.741 363.543 285.515 363.144 286.206C362.746 286.896 362.189 287.482 361.521 287.917L333.794 303.898C332.534 304.626 331.5 304.03 331.5 302.574V301.66C331.543 300.865 331.773 300.091 332.172 299.401C332.57 298.71 333.126 298.124 333.794 297.688Z" fill="black"/>
<path d="M332.654 316.979L416.536 268.626C417.16 268.256 417.677 268.547 417.677 269.288V279.059C417.653 279.456 417.538 279.842 417.34 280.186C417.143 280.531 416.867 280.825 416.536 281.045L332.654 329.398C332.017 329.769 331.5 329.464 331.5 328.736V318.965C331.523 318.567 331.639 318.179 331.839 317.834C332.04 317.489 332.319 317.196 332.654 316.979Z" fill="#BA68C8"/>
<path opacity="0.2" d="M332.654 316.979L416.536 268.626C417.16 268.256 417.677 268.547 417.677 269.288V279.059C417.653 279.456 417.538 279.842 417.34 280.186C417.143 280.531 416.867 280.825 416.536 281.045L332.654 329.398C332.017 329.769 331.5 329.464 331.5 328.736V318.965C331.523 318.567 331.639 318.179 331.839 317.834C332.04 317.489 332.319 317.196 332.654 316.979Z" fill="white"/>
<path d="M333.794 341.155L361.521 325.174C362.847 324.446 363.815 325.042 363.815 326.498V327.412C363.774 328.208 363.544 328.983 363.146 329.673C362.747 330.364 362.19 330.95 361.521 331.384L333.794 347.365C332.534 348.106 331.5 347.51 331.5 346.041V345.127C331.545 344.332 331.776 343.559 332.174 342.869C332.573 342.179 333.127 341.592 333.794 341.155Z" fill="#BA68C8"/>
<path opacity="0.1" d="M333.794 341.155L361.521 325.174C362.847 324.446 363.815 325.042 363.815 326.498V327.412C363.774 328.208 363.544 328.983 363.146 329.673C362.747 330.364 362.19 330.95 361.521 331.384L333.794 347.365C332.534 348.106 331.5 347.51 331.5 346.041V345.127C331.545 344.332 331.776 343.559 332.174 342.869C332.573 342.179 333.127 341.592 333.794 341.155Z" fill="black"/>
<path d="M332.654 360.446L416.536 312.093C417.16 311.723 417.677 312.027 417.677 312.755V322.526C417.653 322.923 417.538 323.309 417.34 323.653C417.143 323.998 416.867 324.292 416.536 324.512L332.654 372.865C332.017 373.236 331.5 372.944 331.5 372.203V362.432C331.523 362.034 331.639 361.646 331.839 361.301C332.04 360.956 332.319 360.663 332.654 360.446Z" fill="#BA68C8"/>
<path opacity="0.2" d="M332.654 360.446L416.536 312.093C417.16 311.723 417.677 312.027 417.677 312.755V322.526C417.653 322.923 417.538 323.309 417.34 323.653C417.143 323.998 416.867 324.292 416.536 324.512L332.654 372.865C332.017 373.236 331.5 372.944 331.5 372.203V362.432C331.523 362.034 331.639 361.646 331.839 361.301C332.04 360.956 332.319 360.663 332.654 360.446Z" fill="white"/>
<path d="M366.109 365.993L399.259 346.914C400.585 346.173 401.566 346.769 401.566 348.238V358.46C401.522 359.257 401.291 360.032 400.89 360.722C400.489 361.413 399.93 361.998 399.259 362.432L366.109 381.524C364.783 382.252 363.815 381.656 363.815 380.2V369.965C363.861 369.171 364.092 368.398 364.49 367.708C364.889 367.018 365.443 366.431 366.109 365.993Z" fill="#BA68C8"/>
<path opacity="0.1" d="M366.109 365.993L399.259 346.914C400.585 346.173 401.566 346.769 401.566 348.238V358.46C401.522 359.257 401.291 360.032 400.89 360.722C400.489 361.413 399.93 361.998 399.259 362.432L366.109 381.524C364.783 382.252 363.815 381.656 363.815 380.2V369.965C363.861 369.171 364.092 368.398 364.49 367.708C364.889 367.018 365.443 366.431 366.109 365.993Z" fill="black"/>
<path d="M444.608 322.857C444.608 322.857 428.325 300.429 427.37 297.701C426.614 295.689 427.37 292.697 427.609 291.306C427.847 289.916 428.059 286.818 428.298 286.01C428.696 284.501 426.747 284.806 425.646 286.183C424.545 287.56 424.174 290.313 423.604 290.764C423.034 291.214 418.698 284.898 416.43 281.986C414.163 279.073 412.744 277.299 411.352 278.384C410.357 279.165 411.1 280.86 412.744 283.349C413.704 284.69 414.59 286.082 415.396 287.52C415.648 288.063 414.295 288.102 413.566 289.228C412.996 290.102 413.566 291.518 412.771 292.194C412.281 292.566 411.945 293.104 411.828 293.708C411.711 294.311 411.82 294.936 412.134 295.464C413.61 297.778 415.514 299.791 417.743 301.395C420.183 303.077 421.164 303.673 422.609 305.963C424.055 308.254 437.023 331.649 437.898 333.052C438.773 334.456 440.457 337.315 443.017 337.395C445.576 337.474 466.527 319.468 467.601 318.568C471.048 315.695 472.149 315.284 472.732 317.866C472.934 318.784 473.084 319.712 473.183 320.646C473.594 323.93 475.835 335.66 475.835 335.66C475.835 335.66 486.443 340.784 495.155 338.308C503.867 335.833 506.81 332.139 506.81 332.139L502.448 325.042C503.628 322.116 509.078 310.253 510.841 301.951L483.526 297.543C482.969 297.423 482.067 297.198 480.874 296.894C479.376 296.497 475.57 295.186 472.693 297.701C463.304 305.87 444.634 322.857 444.634 322.857" fill="#FFA8A7"/>
<path d="M498.762 460.474L493.869 467.266C496.092 468.303 498.522 468.823 500.976 468.789C505.365 468.948 506.572 467.465 506.731 467.173C507.473 465.585 506.32 462.725 506.002 460.262L498.762 460.474Z" fill="#37474F"/>
<path d="M494.147 464.009C494.147 464.009 488.207 463.625 484.109 463.122C480.012 462.619 476.763 464.605 477.718 466.286C478.673 467.968 480.94 469.371 484.467 470.55C487.477 471.569 491.097 472.297 494.227 473.198C497.356 474.098 499.531 475.276 501.347 474.641C503.376 473.939 504.251 473.131 504.079 471.649C503.636 469.539 503.087 467.453 502.435 465.399L494.147 464.009Z" fill="#37474F"/>
<path d="M506.731 453.655C506.731 453.655 505.988 459.825 505.935 461.149C505.882 462.473 499.902 462.897 498.762 460.474L498.576 452.927L506.731 453.655Z" fill="#F28F8F"/>
<path d="M500.711 457.442L502.846 466.816C502.846 466.816 503.045 467.955 498.165 468.683C493.285 469.411 485.621 466.127 484.308 465.465C482.995 464.803 482.85 463.466 487.65 463.731C492.45 463.996 494.147 464.009 494.147 464.009L492.582 459.865L500.711 457.442Z" fill="#FFA8A7"/>
<path d="M510.762 301.872L514.143 300.932C514.143 300.932 521.211 323.268 521.993 325.426C522.776 327.584 523.664 329.861 522.139 332.523C520.322 335.687 510.762 348.411 510.762 348.411L504.689 342.479L511.584 329.875L505.484 317.561L510.762 301.872Z" fill="#F28F8F"/>
<path d="M476.034 272.863C475.241 271.377 474.839 269.715 474.864 268.032C474.89 266.348 475.342 264.699 476.18 263.238C479.548 257.002 487.053 253.97 495.99 255.122C500.127 255.664 505.007 259.094 507.672 264.217C510.616 269.897 510.895 281.337 511.65 285.666L476.034 272.863Z" fill="#37474F"/>
<path d="M475.795 275.313C475.795 275.313 473.674 279.351 474.045 279.721C474.595 280.042 475.196 280.266 475.822 280.383L475.795 275.313Z" fill="#FFA8A7"/>
<path d="M482.24 262.549C479.932 264.045 475.954 266.799 475.782 275.869C475.596 285.137 476.922 288.195 478.301 289.268C479.23 289.996 484.68 289.625 487.013 289.082C489.347 288.539 496.07 285.216 498.496 280.172C501.347 274.24 500.764 265.608 496.534 262.96C494.381 261.688 491.94 260.984 489.44 260.912C486.94 260.84 484.462 261.404 482.24 262.549Z" fill="#FFA8A7"/>
<path d="M506.731 332.086C510.815 338.441 514.687 344.002 515.536 351.178C517.286 366.258 511.558 383.497 510.324 394.658C512.643 397.833 513.98 401.616 514.17 405.541C514.17 410.162 506.731 453.655 506.731 453.655C506.731 453.655 501.321 455.297 498.576 452.927L493.471 372.918L496.123 363.173L506.731 332.086Z" fill="#BA68C8"/>
<path opacity="0.2" d="M506.731 332.086C510.815 338.441 514.687 344.002 515.536 351.178C517.286 366.258 511.558 383.497 510.324 394.658C512.643 397.833 513.98 401.616 514.17 405.541C514.17 410.162 506.731 453.655 506.731 453.655C506.731 453.655 501.321 455.297 498.576 452.927L493.471 372.918L496.123 363.173L506.731 332.086Z" fill="black"/>
<path d="M493.471 372.918L496.123 363.173C501.201 361.839 506.098 359.896 510.709 357.387C510.709 357.387 507.951 362.405 500.021 365.159L495.924 377.671L495.579 406.336L493.471 372.918Z" fill="#BA68C8"/>
<path opacity="0.3" d="M493.471 372.918L496.123 363.173C501.201 361.839 506.098 359.896 510.709 357.387C510.709 357.387 507.951 362.405 500.021 365.159L495.924 377.671L495.579 406.336L493.471 372.918Z" fill="black"/>
<path d="M506.731 332.086C508.919 335.66 514.143 341.751 513.029 347.616C511.703 354.713 507.858 359.704 496.163 363.173L485.183 402.893C485.183 402.893 490.898 408.189 492.649 413.313C494.399 418.437 500.711 457.468 500.711 457.468C500.711 457.468 498.748 460.659 492.582 459.891C492.582 459.891 471.088 410.903 469.576 407.713C467.742 404.481 467.099 400.71 467.76 397.054C468.436 391.917 475.716 335.687 475.716 335.687L506.731 332.086Z" fill="#BA68C8"/>
<path opacity="0.2" d="M506.731 332.086C508.919 335.66 514.143 341.751 513.029 347.616C511.703 354.713 507.858 359.704 496.163 363.173L485.183 402.893C485.183 402.893 490.898 408.189 492.649 413.313C494.399 418.437 500.711 457.468 500.711 457.468C500.711 457.468 498.748 460.659 492.582 459.891C492.582 459.891 471.088 410.903 469.576 407.713C467.742 404.481 467.099 400.71 467.76 397.054C468.436 391.917 475.716 335.687 475.716 335.687L506.731 332.086Z" fill="black"/>
<path d="M510.762 301.872L483.446 297.463C482.889 297.344 481.988 297.119 480.794 296.814C480.794 296.814 479.627 313.92 472.613 317.839C472.785 318.66 472.931 319.574 473.064 320.62C473.475 323.903 475.716 335.634 475.716 335.634C475.716 335.634 486.324 340.758 495.036 338.282C503.747 335.806 506.691 332.112 506.691 332.112L502.329 325.016C503.548 322.063 509.038 310.2 510.762 301.872Z" fill="#BA68C8"/>
<path opacity="0.7" d="M510.762 301.872L483.446 297.463C482.889 297.344 481.988 297.119 480.794 296.814C480.794 296.814 479.627 313.92 472.613 317.839C472.785 318.66 472.931 319.574 473.064 320.62C473.475 323.903 475.716 335.634 475.716 335.634C475.716 335.634 486.324 340.758 495.036 338.282C503.747 335.806 506.691 332.112 506.691 332.112L502.329 325.016C503.548 322.063 509.038 310.2 510.762 301.872Z" fill="white"/>
<path d="M503.562 322.195C499.934 324.37 496.133 326.244 492.198 327.796C495.77 327.725 499.267 326.76 502.368 324.989L503.562 322.195Z" fill="#BA68C8"/>
<path d="M481.563 262.999C481.563 262.999 480.237 271.605 483.367 276.663C483.367 276.663 484.534 273.234 487.438 273.883C490.342 274.531 490.501 278.358 488.459 280.503C487.94 281.104 487.261 281.548 486.501 281.782C485.741 282.016 484.931 282.032 484.162 281.827C484.162 281.827 483.698 288.049 483.446 293.266C483.194 298.483 481.815 309.856 487.69 314.45C493.564 319.044 508.309 320.66 515.217 311.021C519.063 305.659 513.958 296.179 511.584 285.547C509.396 275.776 508.163 261.291 497.78 258.961C487.398 256.631 481.563 262.999 481.563 262.999Z" fill="#37474F"/>
<path d="M519.659 145.415L517.471 146.739C517.655 145.962 517.757 145.167 517.776 144.369C517.776 139.934 514.66 138.146 510.815 140.397C509.645 141.102 508.6 141.997 507.725 143.045C507.725 137.087 503.535 134.664 498.364 137.643C495.639 139.418 493.371 141.808 491.744 144.622C490.118 147.435 489.178 150.592 489.002 153.836C489.002 154.14 489.002 154.431 489.002 154.723C487.67 154.555 486.322 154.865 485.197 155.596C483.17 156.915 481.484 158.692 480.274 160.783C479.065 162.874 478.366 165.22 478.235 167.632C478.234 168.192 478.292 168.751 478.408 169.3L477.241 169.975C474.071 171.802 471.499 175.364 471.499 177.919C471.499 180.474 474.071 181.083 477.241 179.243L519.673 154.815C522.842 152.988 525.414 149.427 525.414 146.871C525.414 144.316 522.829 143.575 519.659 145.415Z" fill="#EBEBEB"/>
</g>
</svg>
