<svg width="31" height="28" viewBox="0 0 31 28" fill="none" xmlns="http://www.w3.org/2000/svg">
<path d="M10.3333 3.5H7.75V5.83333H10.3333V3.5Z" fill="white"/>
<path d="M14.2083 22.1667H10.3333V24.5H14.2083V22.1667Z" fill="white"/>
<path d="M23.25 3.5H20.6667V5.83333H23.25V3.5Z" fill="white"/>
<path d="M20.6667 22.1667H16.7917V24.5H20.6667V22.1667Z" fill="white"/>
<path d="M25.8333 12.8333V10.5H23.25V8.16667H20.6667V5.83334H18.0833V8.16667H12.9167V5.83334H10.3333V8.16667H7.75V10.5H5.16666V12.8333H2.58333V22.1667H5.16666V17.5H7.75V22.1667H10.3333V18.6667H20.6667V22.1667H23.25V17.5H25.8333V22.1667H28.4167V12.8333H25.8333ZM12.9167 14H10.3333V10.5H12.9167V14ZM20.6667 14H18.0833V10.5H20.6667V14Z" fill="white"/>
</svg>
